<mxfile host="app.diagrams.net" modified="2024-05-08T20:49:52.286Z" agent="Mozilla/5.0 (Windows NT 10.0; Win64; x64) AppleWebKit/537.36 (KHTML, like Gecko) Chrome/124.0.0.0 Safari/537.36" etag="SU7u-c_9mqncooUwHXoh" version="24.3.1" type="device">
  <diagram name="Page-1" id="e7e014a7-5840-1c2e-5031-d8a46d1fe8dd">
    <mxGraphModel dx="653" dy="768" grid="1" gridSize="10" guides="1" tooltips="1" connect="1" arrows="1" fold="1" page="1" pageScale="1" pageWidth="1169" pageHeight="826" background="none" math="0" shadow="0">
      <root>
        <mxCell id="0" />
        <mxCell id="1" parent="0" />
        <mxCell id="4wt3FrgPkG5w_L3wKyrl-41" value="Admin" style="swimlane;whiteSpace=wrap;html=1;" vertex="1" parent="1">
          <mxGeometry x="70" y="230" width="250" height="540" as="geometry" />
        </mxCell>
        <mxCell id="4wt3FrgPkG5w_L3wKyrl-54" style="edgeStyle=none;curved=1;rounded=0;orthogonalLoop=1;jettySize=auto;html=1;exitX=0.5;exitY=1;exitDx=0;exitDy=0;exitPerimeter=0;entryX=0.5;entryY=0;entryDx=0;entryDy=0;fontSize=12;startSize=8;endSize=8;" edge="1" parent="4wt3FrgPkG5w_L3wKyrl-41" source="4wt3FrgPkG5w_L3wKyrl-43" target="4wt3FrgPkG5w_L3wKyrl-44">
          <mxGeometry relative="1" as="geometry" />
        </mxCell>
        <mxCell id="4wt3FrgPkG5w_L3wKyrl-43" value="" style="strokeWidth=2;html=1;shape=mxgraph.flowchart.start_2;whiteSpace=wrap;fillColor=#000000;" vertex="1" parent="4wt3FrgPkG5w_L3wKyrl-41">
          <mxGeometry x="110" y="40" width="30" height="30" as="geometry" />
        </mxCell>
        <mxCell id="4wt3FrgPkG5w_L3wKyrl-55" style="edgeStyle=none;curved=1;rounded=0;orthogonalLoop=1;jettySize=auto;html=1;exitX=0.5;exitY=1;exitDx=0;exitDy=0;entryX=0.5;entryY=0;entryDx=0;entryDy=0;fontSize=12;startSize=8;endSize=8;" edge="1" parent="4wt3FrgPkG5w_L3wKyrl-41" source="4wt3FrgPkG5w_L3wKyrl-44" target="4wt3FrgPkG5w_L3wKyrl-45">
          <mxGeometry relative="1" as="geometry" />
        </mxCell>
        <mxCell id="4wt3FrgPkG5w_L3wKyrl-44" value="Login to system" style="rounded=1;whiteSpace=wrap;html=1;" vertex="1" parent="4wt3FrgPkG5w_L3wKyrl-41">
          <mxGeometry x="75" y="100" width="100" height="40" as="geometry" />
        </mxCell>
        <mxCell id="4wt3FrgPkG5w_L3wKyrl-56" value="No" style="edgeStyle=none;curved=1;rounded=0;orthogonalLoop=1;jettySize=auto;html=1;exitX=0.5;exitY=1;exitDx=0;exitDy=0;entryX=0.5;entryY=0;entryDx=0;entryDy=0;fontSize=12;startSize=8;endSize=8;" edge="1" parent="4wt3FrgPkG5w_L3wKyrl-41" source="4wt3FrgPkG5w_L3wKyrl-45" target="4wt3FrgPkG5w_L3wKyrl-46">
          <mxGeometry relative="1" as="geometry" />
        </mxCell>
        <mxCell id="4wt3FrgPkG5w_L3wKyrl-45" value="Search for user" style="rhombus;whiteSpace=wrap;html=1;" vertex="1" parent="4wt3FrgPkG5w_L3wKyrl-41">
          <mxGeometry x="93.75" y="153" width="62.5" height="60" as="geometry" />
        </mxCell>
        <mxCell id="4wt3FrgPkG5w_L3wKyrl-57" style="edgeStyle=none;curved=1;rounded=0;orthogonalLoop=1;jettySize=auto;html=1;exitX=0.5;exitY=1;exitDx=0;exitDy=0;entryX=0.5;entryY=0;entryDx=0;entryDy=0;fontSize=12;startSize=8;endSize=8;" edge="1" parent="4wt3FrgPkG5w_L3wKyrl-41" source="4wt3FrgPkG5w_L3wKyrl-46" target="4wt3FrgPkG5w_L3wKyrl-47">
          <mxGeometry relative="1" as="geometry" />
        </mxCell>
        <mxCell id="4wt3FrgPkG5w_L3wKyrl-46" value="Open User Management Section" style="rounded=1;whiteSpace=wrap;html=1;" vertex="1" parent="4wt3FrgPkG5w_L3wKyrl-41">
          <mxGeometry x="75" y="230" width="100" height="40" as="geometry" />
        </mxCell>
        <mxCell id="4wt3FrgPkG5w_L3wKyrl-58" style="edgeStyle=none;curved=1;rounded=0;orthogonalLoop=1;jettySize=auto;html=1;exitX=0.5;exitY=1;exitDx=0;exitDy=0;entryX=0.5;entryY=0;entryDx=0;entryDy=0;fontSize=12;startSize=8;endSize=8;" edge="1" parent="4wt3FrgPkG5w_L3wKyrl-41" source="4wt3FrgPkG5w_L3wKyrl-47" target="4wt3FrgPkG5w_L3wKyrl-48">
          <mxGeometry relative="1" as="geometry" />
        </mxCell>
        <mxCell id="4wt3FrgPkG5w_L3wKyrl-47" value="Choose user(s)&lt;span style=&quot;color: rgba(0, 0, 0, 0); font-family: monospace; font-size: 0px; text-align: start; text-wrap: nowrap;&quot;&gt;%3CmxGraphModel%3E%3Croot%3E%3CmxCell%20id%3D%220%22%2F%3E%3CmxCell%20id%3D%221%22%20parent%3D%220%22%2F%3E%3CmxCell%20id%3D%222%22%20value%3D%22Login%20to%20system%22%20style%3D%22rounded%3D1%3BwhiteSpace%3Dwrap%3Bhtml%3D1%3B%22%20vertex%3D%221%22%20parent%3D%221%22%3E%3CmxGeometry%20x%3D%22340%22%20y%3D%22410%22%20width%3D%22100%22%20height%3D%2240%22%20as%3D%22geometry%22%2F%3E%3C%2FmxCell%3E%3C%2Froot%3E%3C%2FmxGraphModel%3E&lt;/span&gt;" style="rounded=1;whiteSpace=wrap;html=1;" vertex="1" parent="4wt3FrgPkG5w_L3wKyrl-41">
          <mxGeometry x="75" y="290" width="100" height="40" as="geometry" />
        </mxCell>
        <mxCell id="4wt3FrgPkG5w_L3wKyrl-59" style="edgeStyle=none;curved=1;rounded=0;orthogonalLoop=1;jettySize=auto;html=1;exitX=0.5;exitY=1;exitDx=0;exitDy=0;fontSize=12;startSize=8;endSize=8;" edge="1" parent="4wt3FrgPkG5w_L3wKyrl-41" source="4wt3FrgPkG5w_L3wKyrl-48" target="4wt3FrgPkG5w_L3wKyrl-49">
          <mxGeometry relative="1" as="geometry" />
        </mxCell>
        <mxCell id="4wt3FrgPkG5w_L3wKyrl-48" value="Define Permissiions" style="rounded=1;whiteSpace=wrap;html=1;" vertex="1" parent="4wt3FrgPkG5w_L3wKyrl-41">
          <mxGeometry x="75" y="350" width="100" height="40" as="geometry" />
        </mxCell>
        <mxCell id="4wt3FrgPkG5w_L3wKyrl-49" value="Save changes" style="rounded=1;whiteSpace=wrap;html=1;" vertex="1" parent="4wt3FrgPkG5w_L3wKyrl-41">
          <mxGeometry x="75" y="410" width="100" height="40" as="geometry" />
        </mxCell>
        <mxCell id="4wt3FrgPkG5w_L3wKyrl-42" value="System" style="swimlane;whiteSpace=wrap;html=1;" vertex="1" parent="1">
          <mxGeometry x="320" y="230" width="320" height="540" as="geometry" />
        </mxCell>
        <mxCell id="4wt3FrgPkG5w_L3wKyrl-62" value="No" style="edgeStyle=none;curved=1;rounded=0;orthogonalLoop=1;jettySize=auto;html=1;exitX=0.5;exitY=1;exitDx=0;exitDy=0;entryX=0.5;entryY=0;entryDx=0;entryDy=0;fontSize=12;startSize=8;endSize=8;" edge="1" parent="4wt3FrgPkG5w_L3wKyrl-42" source="4wt3FrgPkG5w_L3wKyrl-50" target="4wt3FrgPkG5w_L3wKyrl-51">
          <mxGeometry relative="1" as="geometry" />
        </mxCell>
        <mxCell id="4wt3FrgPkG5w_L3wKyrl-50" value="User found" style="rhombus;whiteSpace=wrap;html=1;" vertex="1" parent="4wt3FrgPkG5w_L3wKyrl-42">
          <mxGeometry x="130" y="190" width="60" height="57" as="geometry" />
        </mxCell>
        <mxCell id="4wt3FrgPkG5w_L3wKyrl-61" style="edgeStyle=none;curved=1;rounded=0;orthogonalLoop=1;jettySize=auto;html=1;exitX=0.5;exitY=1;exitDx=0;exitDy=0;entryX=0.5;entryY=0;entryDx=0;entryDy=0;fontSize=12;startSize=8;endSize=8;" edge="1" parent="4wt3FrgPkG5w_L3wKyrl-42" source="4wt3FrgPkG5w_L3wKyrl-51" target="4wt3FrgPkG5w_L3wKyrl-53">
          <mxGeometry relative="1" as="geometry" />
        </mxCell>
        <mxCell id="4wt3FrgPkG5w_L3wKyrl-51" value="Display &quot;User not found&quot;" style="rounded=1;whiteSpace=wrap;html=1;" vertex="1" parent="4wt3FrgPkG5w_L3wKyrl-42">
          <mxGeometry x="110" y="280" width="100" height="40" as="geometry" />
        </mxCell>
        <mxCell id="4wt3FrgPkG5w_L3wKyrl-53" value="" style="ellipse;html=1;shape=endState;fillColor=#000000;strokeColor=#000000;" vertex="1" parent="4wt3FrgPkG5w_L3wKyrl-42">
          <mxGeometry x="145" y="420" width="30" height="30" as="geometry" />
        </mxCell>
        <mxCell id="4wt3FrgPkG5w_L3wKyrl-60" style="edgeStyle=none;curved=1;rounded=0;orthogonalLoop=1;jettySize=auto;html=1;exitX=1;exitY=0.5;exitDx=0;exitDy=0;entryX=0;entryY=0.5;entryDx=0;entryDy=0;fontSize=12;startSize=8;endSize=8;" edge="1" parent="1" source="4wt3FrgPkG5w_L3wKyrl-49" target="4wt3FrgPkG5w_L3wKyrl-53">
          <mxGeometry relative="1" as="geometry" />
        </mxCell>
        <mxCell id="4wt3FrgPkG5w_L3wKyrl-65" value="Yes" style="edgeStyle=none;curved=1;rounded=0;orthogonalLoop=1;jettySize=auto;html=1;exitX=1;exitY=0.5;exitDx=0;exitDy=0;entryX=0.5;entryY=0;entryDx=0;entryDy=0;fontSize=12;startSize=8;endSize=8;" edge="1" parent="1" source="4wt3FrgPkG5w_L3wKyrl-45" target="4wt3FrgPkG5w_L3wKyrl-50">
          <mxGeometry relative="1" as="geometry" />
        </mxCell>
        <mxCell id="4wt3FrgPkG5w_L3wKyrl-66" value="Yes" style="edgeStyle=none;curved=1;rounded=0;orthogonalLoop=1;jettySize=auto;html=1;exitX=0;exitY=0.5;exitDx=0;exitDy=0;entryX=1;entryY=0.5;entryDx=0;entryDy=0;fontSize=12;startSize=8;endSize=8;" edge="1" parent="1" source="4wt3FrgPkG5w_L3wKyrl-50" target="4wt3FrgPkG5w_L3wKyrl-48">
          <mxGeometry relative="1" as="geometry">
            <Array as="points">
              <mxPoint x="340" y="560" />
            </Array>
          </mxGeometry>
        </mxCell>
      </root>
    </mxGraphModel>
  </diagram>
</mxfile>
